<svg xmlns="http://www.w3.org/2000/svg" viewBox="0 0 100 100">
  <defs>
    <style>
      .b{fill:none;stroke:#000;stroke-width: 5;}
    </style>
  </defs>
  <!-- <path fill="#ccc" d="M0 0h100v100H0z"/> -->
  <circle class="b" cx="49.96" cy="46.1" r="19.21"/>
  <path class="b" d="M97.16 50a47.08 47.08 0 0 1-15.33 34.81 47 47 0 0 1-31.87 12.38A46.97 46.97 0 0 1 18.09 84.8 47.2 47.2 0 1 1 97.16 50Z"/>
  <path class="b" d="M81.82 84.81a47 47 0 0 1-31.87 12.38A46.97 46.97 0 0 1 18.08 84.8c7.5-11.62 18.99-19.06 31.87-19.06s24.37 7.44 31.87 19.06Z"/>
</svg>
